<svg width="64" height="64" viewBox="0 0 64 64" fill="none" xmlns="http://www.w3.org/2000/svg">
<path d="M15.6386 19.4329C15.7806 18.1517 16.728 17.1045 17.9911 16.8326L39.1645 12.2745C40.4437 11.9991 41.7543 12.5817 42.4043 13.7147L53.0924 32.3453C53.7372 33.4694 53.585 34.8797 52.715 35.8414L38.1434 51.948C37.2734 52.9096 35.8826 53.2049 34.6957 52.6799L15.0251 43.9781C13.8289 43.4489 13.114 42.2079 13.2578 40.9102L15.6386 19.4329Z" fill="#FFBF00"/>
<path d="M51.4278 42.2616C51.5084 43.5588 50.7445 44.7603 49.5357 45.2378L28.2441 53.648C27.0354 54.1254 25.6566 53.7703 24.8289 52.7682L10.2509 35.1176C9.42329 34.1155 9.33503 32.6944 10.0323 31.5976L22.3142 12.2788C23.0115 11.182 24.3357 10.6589 25.5943 10.9831L47.7629 16.694C49.0215 17.0183 49.9282 18.1161 50.0087 19.4132L51.4278 42.2616Z" fill="#060505"/>
<path fill-rule="evenodd" clip-rule="evenodd" d="M33.9431 11.5438C32.929 10.8223 31.5558 10.8223 30.5053 11.5438L12.3442 24.0166C11.2328 24.7799 10.7402 26.1719 11.1347 27.4341L17.3994 47.474C17.7805 48.693 18.9034 49.5136 20.1904 49.5136H42.3464C43.6334 49.5136 44.7977 48.693 45.2401 47.474L52.5137 27.4341C52.9719 26.1719 52.5493 24.7799 51.4763 24.0166L33.9431 11.5438ZM39.438 27.3085C38.7398 26.5286 37.7427 26.1386 36.4467 26.1386C35.7507 26.1386 35.1125 26.3126 34.5321 26.6606C33.9519 26.9966 33.4725 27.4285 33.0938 27.9565C32.7651 27.3805 32.3207 26.9366 31.7606 26.6246C31.2007 26.3006 30.5547 26.1386 29.8227 26.1386C29.1507 26.1386 28.5611 26.2706 28.0537 26.5346C27.5584 26.7986 27.164 27.1466 26.8706 27.5785L26.8878 26.2106H22.8918L22.7639 36.3618H26.7599L26.8277 30.9802C26.8331 30.5483 26.9634 30.2123 27.2184 29.9723C27.4736 29.7204 27.8232 29.5944 28.2672 29.5944C28.6992 29.5944 29.0396 29.7204 29.2884 29.9723C29.5494 30.2123 29.6771 30.5483 29.6717 30.9802L29.6039 36.3618H33.5819L33.6497 30.9802C33.6551 30.5483 33.7854 30.2123 34.0404 29.9723C34.2956 29.7204 34.6452 29.5944 35.0892 29.5944C35.5212 29.5944 35.8616 29.7204 36.1104 29.9723C36.3714 30.2123 36.4991 30.5483 36.4937 30.9802L36.4259 36.3618H40.4039L40.478 30.4763C40.4948 29.1444 40.1481 28.0885 39.438 27.3085Z" fill="#FFBF00"/>
</svg>
